<svg width="80" height="80" viewBox="0 0 80 80" fill="none" xmlns="http://www.w3.org/2000/svg">
<mask id="path-1-inside-1_34_74" fill="white">
<path d="M0 40C0 17.9086 17.9086 0 40 0C62.0914 0 80 17.9086 80 40C80 62.0914 62.0914 80 40 80C17.9086 80 0 62.0914 0 40Z"/>
</mask>
<path d="M0 40C0 17.9086 17.9086 0 40 0C62.0914 0 80 17.9086 80 40C80 62.0914 62.0914 80 40 80C17.9086 80 0 62.0914 0 40Z" fill="url(#paint0_linear_34_74)" fill-opacity="0.16"/>
<path d="M40 76C20.1178 76 4 59.8823 4 40H-4C-4 64.3005 15.6995 84 40 84V76ZM76 40C76 59.8823 59.8823 76 40 76V84C64.3005 84 84 64.3005 84 40H76ZM40 4C59.8823 4 76 20.1178 76 40H84C84 15.6995 64.3005 -4 40 -4V4ZM40 -4C15.6995 -4 -4 15.6995 -4 40H4C4 20.1178 20.1178 4 40 4V-4Z" fill="url(#paint1_linear_34_74)" mask="url(#path-1-inside-1_34_74)"/>
<path fill-rule="evenodd" clip-rule="evenodd" d="M52.0005 32C52.0005 38.6274 46.6279 44 40.0005 44C33.3731 44 28.0005 38.6274 28.0005 32C28.0005 25.3726 33.3731 20 40.0005 20C46.6279 20 52.0005 25.3726 52.0005 32ZM48.0005 32C48.0005 36.4183 44.4188 40 40.0005 40C35.5822 40 32.0005 36.4183 32.0005 32C32.0005 27.5817 35.5822 24 40.0005 24C44.4188 24 48.0005 27.5817 48.0005 32Z" fill="url(#paint2_linear_34_74)" fill-opacity="0.8"/>
<path d="M40.0005 50C27.0517 50 16.019 57.6568 11.8164 68.3841C12.8402 69.4007 13.9187 70.3623 15.0471 71.2641C18.1765 61.4154 27.9939 54 40.0005 54C52.0071 54 61.8245 61.4154 64.9539 71.2641C66.0823 70.3623 67.1608 69.4007 68.1846 68.3841C63.982 57.6568 52.9493 50 40.0005 50Z" fill="url(#paint3_linear_34_74)" fill-opacity="0.8"/>
<defs>
<linearGradient id="paint0_linear_34_74" x1="80" y1="40" x2="0" y2="40" gradientUnits="userSpaceOnUse">
<stop stop-color="#4A0EB7"/>
<stop offset="1" stop-color="#A499B7" stop-opacity="0.6"/>
</linearGradient>
<linearGradient id="paint1_linear_34_74" x1="80" y1="40" x2="4" y2="40" gradientUnits="userSpaceOnUse">
<stop stop-color="#21005D" stop-opacity="0.8"/>
<stop offset="1" stop-color="#4500C3" stop-opacity="0.4"/>
</linearGradient>
<linearGradient id="paint2_linear_34_74" x1="68" y1="36.5" x2="20" y2="50" gradientUnits="userSpaceOnUse">
<stop stop-color="#21005D"/>
<stop offset="1" stop-color="#4500C3" stop-opacity="0.4"/>
</linearGradient>
<linearGradient id="paint3_linear_34_74" x1="68" y1="36.5" x2="20" y2="50" gradientUnits="userSpaceOnUse">
<stop stop-color="#21005D"/>
<stop offset="1" stop-color="#4500C3" stop-opacity="0.4"/>
</linearGradient>
</defs>
</svg>
